<?xml version="1.0" standalone="no"?>
<!DOCTYPE svg PUBLIC "-//W3C//DTD SVG 20010904//EN"
 "http://www.w3.org/TR/2001/REC-SVG-20010904/DTD/svg10.dtd">
<svg version="1.0" xmlns="http://www.w3.org/2000/svg"
 width="300.000000pt" height="286.000000pt" viewBox="0 0 300.000000 286.000000"
 preserveAspectRatio="xMidYMid meet">
<metadata>
Created by potrace 1.10, written by Peter Selinger 2001-2011
</metadata>
<g transform="translate(0.000000,286.000000) scale(0.100000,-0.100000)"
fill="#000000" stroke="none">
<path d="M1439 2795 c-29 -16 -59 -70 -59 -107 0 -13 9 -40 20 -61 11 -20 16
-37 10 -37 -5 0 -10 -13 -10 -29 0 -23 5 -30 22 -33 20 -3 22 -9 24 -80 1 -43
0 -78 -2 -78 -3 0 -22 9 -43 20 -56 28 -109 95 -128 160 -9 30 -23 66 -31 79
-45 68 -193 68 -400 0 -103 -34 -63 -33 54 2 110 32 212 42 248 25 14 -7 17
-6 12 2 -10 17 5 15 40 -7 17 -10 34 -29 37 -41 5 -20 4 -20 -16 -8 -32 20
-130 41 -163 36 -16 -3 -81 -18 -144 -33 -82 -19 -120 -24 -131 -16 -10 6 -20
6 -26 0 -5 -5 -22 -11 -38 -13 -40 -5 -305 -83 -313 -92 -13 -12 203 48 294
83 8 3 14 -1 14 -11 0 -13 4 -12 21 5 l21 21 21 -24 22 -23 -45 -6 c-25 -4
-81 -18 -125 -32 -44 -13 -106 -30 -138 -37 -51 -10 -61 -9 -84 5 -14 9 -23
13 -19 7 3 -5 -11 -8 -37 -7 -56 4 -286 -30 -299 -43 -17 -17 39 -92 73 -99
25 -5 26 -8 16 -25 -10 -17 -7 -24 30 -58 23 -22 53 -42 68 -46 17 -4 73 5
152 25 69 17 128 30 130 28 2 -2 -43 -16 -99 -31 -57 -15 -109 -29 -115 -31
-22 -8 20 -68 61 -89 l38 -18 71 27 c40 16 98 41 129 57 32 15 61 28 65 28 16
0 -63 -43 -142 -77 -44 -20 -81 -37 -83 -38 -2 -2 1 -12 7 -23 13 -25 95 -54
129 -45 24 6 104 48 180 95 17 11 32 17 32 15 0 -8 -153 -103 -177 -111 -22
-7 -22 -7 -2 -27 67 -67 137 -48 275 75 24 21 44 34 44 28 0 -11 -86 -86 -144
-126 -21 -14 -33 -26 -26 -26 8 0 22 -8 32 -17 12 -11 40 -18 80 -20 33 -2 66
-7 72 -12 6 -4 23 -11 39 -13 24 -5 30 0 58 49 36 63 58 79 131 99 87 23 186
18 252 -12 31 -14 53 -30 50 -35 -8 -13 -110 -1 -148 17 -38 18 -39 18 -33 -6
6 -22 -2 -24 -52 -14 -17 4 -28 10 -25 15 3 5 1 9 -5 9 -19 0 -18 -15 2 -35
11 -11 17 -14 13 -8 -5 10 2 11 26 7 18 -3 39 -8 46 -10 7 -2 10 1 6 7 -4 7
14 9 57 5 35 -2 70 -5 77 -5 22 -2 13 -19 -10 -19 -59 1 -123 -16 -142 -38
-13 -15 -37 -26 -66 -30 l-45 -7 23 25 c12 13 19 28 15 33 -5 4 1 2 13 -5 14
-9 26 -10 38 -3 14 8 10 12 -25 22 -43 13 -43 13 -71 -21 -15 -18 -28 -38 -28
-44 0 -18 59 -24 110 -13 25 6 72 14 105 19 33 4 68 11 78 15 16 7 17 -2 17
-110 0 -107 -1 -116 -18 -111 -10 3 -43 13 -75 21 -77 20 -134 50 -179 93 -50
48 -60 34 -11 -15 44 -44 103 -75 187 -97 32 -8 67 -24 77 -34 17 -19 17 -20
0 -25 -10 -2 -26 0 -35 5 -9 5 -24 7 -34 5 -13 -4 -12 -5 5 -6 27 -1 38 -17
17 -25 -8 -3 -12 -2 -9 4 3 6 -4 10 -17 10 -46 0 -160 54 -211 99 -51 47 -90
113 -80 139 4 9 15 -5 31 -38 24 -51 78 -101 131 -121 40 -16 33 -4 -18 29
-67 44 -102 99 -96 152 6 43 0 50 -21 23 -12 -17 -13 -16 -14 4 0 46 89 120
134 110 11 -3 30 -1 41 3 15 7 10 9 -23 9 -79 2 -139 -43 -176 -134 -13 -31
-19 -36 -26 -25 -17 27 -33 -4 -25 -48 15 -90 116 -195 217 -227 29 -9 59 -19
67 -21 11 -3 10 -8 -3 -27 -28 -37 -56 -101 -56 -127 0 -69 46 -149 115 -199
l35 -24 -34 -38 c-46 -50 -63 -78 -71 -117 -10 -47 26 -114 81 -154 l45 -32
-25 -20 c-31 -27 -46 -57 -46 -95 0 -25 10 -38 55 -72 31 -23 57 -40 60 -38 2
3 -19 28 -46 57 -30 30 -49 59 -47 69 2 10 28 30 58 45 59 30 61 37 4 13 -24
-10 -34 -11 -32 -3 2 6 30 20 62 31 40 13 56 23 52 33 -3 7 -1 16 4 19 5 3 7
12 3 21 -5 13 -8 13 -24 -2 -18 -16 -19 -16 -19 11 0 15 -12 44 -27 63 -26 35
-26 36 -9 66 l18 31 -35 -34 c-49 -46 -52 -66 -16 -104 l30 -32 -16 33 c-21
43 -13 52 13 15 20 -29 28 -93 11 -93 -5 0 -13 10 -18 23 -5 12 -20 29 -35 36
-14 8 -23 18 -20 22 2 4 0 10 -6 14 -18 11 -11 53 15 84 14 16 53 44 87 60 71
36 57 42 -17 7 -94 -44 -133 -112 -101 -177 8 -16 10 -26 4 -23 -6 4 -19 27
-30 51 -37 85 -5 116 207 198 66 26 127 49 135 53 8 3 1 -9 -17 -27 -19 -21
-36 -30 -44 -26 -7 5 -10 4 -6 -2 3 -5 -24 -24 -62 -42 l-67 -33 3 -56 c5 -84
23 -87 33 -5 8 70 28 66 24 -4 -2 -40 -1 -52 6 -38 8 19 9 19 9 -2 1 -12 -3
-33 -9 -47 -10 -28 -2 -34 18 -14 8 8 12 45 12 100 0 53 4 88 10 88 12 0 50
-59 50 -78 0 -19 -71 -132 -82 -132 -5 0 -6 -5 -3 -10 12 -20 113 69 142 124
11 22 14 47 10 90 -5 60 -5 61 10 31 43 -80 1 -184 -97 -243 -30 -18 -56 -37
-56 -42 -1 -6 -2 -14 -3 -18 0 -4 -11 -8 -23 -9 -12 -1 -28 -9 -37 -18 -14
-13 -13 -15 7 -15 12 0 52 14 89 30 57 26 69 28 81 17 15 -16 25 -81 16 -109
-7 -23 -200 -178 -221 -178 -14 0 -14 3 3 23 18 21 17 21 -8 -2 -15 -13 -34
-38 -43 -56 -18 -40 -10 -68 34 -109 17 -17 31 -38 31 -47 0 -15 4 -14 28 8
15 14 26 30 24 35 -1 5 2 7 7 4 5 -3 23 10 41 30 32 38 37 73 16 129 -7 20 -7
20 8 1 23 -28 30 -82 16 -116 -7 -17 -29 -42 -50 -58 -119 -87 -137 -124 -105
-207 9 -25 14 -56 11 -69 -8 -31 14 -48 56 -44 30 3 33 6 33 35 l0 32 24 -22
24 -22 -12 23 c-10 19 -10 31 3 63 18 44 22 104 6 94 -6 -3 -10 -20 -10 -36 0
-28 -24 -89 -35 -89 -8 0 6 84 15 94 5 4 4 22 -1 39 -14 48 -11 62 17 92 55
60 63 117 27 188 -14 28 -13 30 36 82 43 46 51 60 51 92 0 21 -8 55 -18 74
-18 36 -18 36 6 65 55 67 76 155 52 220 -6 15 -26 42 -45 60 l-35 33 54 54
c85 85 103 173 54 270 -10 20 -21 37 -24 37 -3 0 -2 -4 1 -10 3 -5 2 -10 -4
-10 -5 0 -14 7 -19 16 -6 11 -16 14 -31 9 -25 -8 -28 -41 -4 -67 9 -10 13 -21
10 -25 -4 -4 -14 2 -23 13 -8 10 -13 13 -9 6 3 -6 -1 -15 -9 -18 -12 -4 -14
-16 -9 -55 6 -47 4 -51 -33 -85 l-38 -36 39 20 c58 29 75 52 99 137 25 88 38
86 57 -7 10 -47 9 -61 -6 -92 -26 -55 -97 -111 -178 -142 -59 -23 -182 -71
-257 -101 -8 -3 1 10 19 30 19 21 40 37 47 37 7 0 19 6 26 12 7 7 21 14 31 16
9 2 47 16 83 32 75 34 86 37 58 14 -17 -15 -17 -15 9 0 77 45 97 66 62 66 -8
0 -14 -5 -12 -11 3 -15 -135 -51 -148 -38 -7 7 -7 10 0 8 6 -1 22 1 38 5 l27
8 -1 97 c-1 53 -5 110 -9 126 l-8 30 -1 -27 c-1 -34 -18 -37 -24 -5 l-4 22 -2
-23 c-1 -19 -6 -23 -28 -20 l-28 3 -5 -97 c-4 -83 -7 -96 -20 -88 -8 5 -15 13
-15 17 0 4 -10 18 -22 31 -32 31 -29 56 13 102 20 22 34 45 31 52 -4 9 -6 8
-6 -2 -1 -9 -10 -16 -20 -17 -34 -3 -62 -41 -68 -94 -4 -35 -2 -49 7 -49 7 0
10 -6 7 -13 -3 -8 6 -27 19 -42 26 -30 30 -40 14 -30 -6 4 -17 2 -24 -4 -17
-14 -42 32 -45 84 -1 21 -4 42 -8 45 -3 3 -3 -24 -1 -59 4 -55 3 -61 -9 -45
-26 36 -35 91 -20 127 16 36 104 120 118 111 5 -3 9 0 9 6 0 7 7 10 15 6 8 -3
15 -1 15 5 0 6 7 9 14 6 8 -3 28 0 43 8 16 8 47 17 69 20 79 12 230 65 280 99
51 34 114 104 114 125 0 6 5 11 10 11 6 0 4 -16 -5 -37 -24 -57 -101 -130
-180 -169 -76 -38 -53 -37 33 1 60 27 149 112 175 167 9 20 17 56 17 80 0 42
1 44 40 56 22 6 59 12 82 12 24 0 54 7 68 15 14 8 33 17 42 21 14 5 11 11 -20
31 -56 39 -142 114 -142 125 0 6 20 -7 44 -28 116 -103 170 -127 230 -104 29
11 72 50 55 50 -14 0 -178 100 -186 114 -4 5 9 0 28 -11 159 -97 180 -106 238
-91 39 10 81 40 81 58 0 5 -10 12 -22 16 -41 12 -190 85 -185 90 3 3 27 -6 54
-19 26 -13 80 -37 120 -52 l72 -28 37 20 c42 21 83 81 61 88 -6 2 -58 16 -115
31 -56 15 -101 29 -98 31 2 2 60 -10 129 -28 76 -19 137 -29 152 -25 28 7 109
75 100 85 -3 3 -9 0 -13 -6 -15 -23 -86 -63 -114 -63 -16 0 -80 12 -143 26
-63 14 -119 23 -125 19 -5 -3 -10 -2 -10 3 0 5 -17 12 -37 16 -21 3 -45 11
-53 16 -13 9 -12 12 4 25 25 19 37 19 30 0 -9 -22 38 -19 86 5 40 20 71 26 68
13 -2 -14 14 -43 25 -43 5 0 2 10 -9 22 -19 21 -19 21 0 14 40 -14 104 -24
200 -31 90 -6 98 -5 87 9 -12 14 -11 16 7 16 19 0 92 71 92 90 0 16 -33 27
-105 35 -108 11 -218 33 -349 71 -66 18 -121 32 -124 30 -3 -4 34 -16 173 -56
l59 -17 -34 -16 c-18 -9 -47 -16 -64 -16 l-31 1 30 7 c26 6 21 8 -38 19 -37 7
-73 10 -79 6 -7 -5 -8 -2 -3 6 6 10 3 12 -13 8 -14 -4 -20 -2 -15 5 4 6 -2 8
-15 5 -12 -4 -20 -3 -17 1 6 10 -64 31 -103 31 l-31 0 24 26 c28 30 24 50 -6
34 -14 -8 -47 -4 -131 17 -137 33 -215 35 -280 5 -51 -22 -57 -19 -33 15 24
34 75 46 137 34 36 -7 63 -8 83 -1 27 8 25 9 -15 5 -31 -3 -39 -2 -25 4 14 6
-3 9 -56 10 -100 1 -136 -20 -162 -98 -12 -35 -14 -58 -8 -64 14 -14 143 5
149 22 4 11 -7 13 -57 7 -39 -5 -61 -3 -61 3 0 16 35 31 72 31 18 0 42 7 52
15 11 8 36 15 56 15 45 0 250 -36 259 -46 8 -9 -112 3 -170 18 -75 18 -164
-11 -131 -44 20 -20 14 -56 -10 -64 -13 -4 -26 -11 -29 -16 -3 -5 -12 -10 -20
-12 -18 -3 -97 -44 -131 -68 -15 -10 -36 -21 -47 -23 -10 -2 -33 -11 -51 -20
-17 -9 -36 -15 -42 -13 -9 3 105 66 249 137 29 14 52 29 52 33 2 14 -96 -26
-149 -62 -73 -49 -139 -82 -153 -77 -7 2 9 14 36 27 49 23 131 105 121 122 -3
5 -21 -12 -40 -36 -30 -39 -106 -96 -128 -96 -4 0 -6 35 -4 78 3 71 5 77 26
80 17 3 22 10 22 33 0 16 -5 29 -10 29 -6 0 -1 17 10 37 24 45 25 74 5 117
-29 60 -114 85 -176 51z m28 -13 c-15 -10 -34 -27 -42 -38 -14 -19 -21 -8 -7
12 10 15 55 44 67 44 5 0 -2 -8 -18 -18z m41 -39 l10 -38 1 38 c1 20 6 37 12
37 7 0 27 -16 46 -36 44 -47 33 -58 -55 -61 -85 -2 -122 5 -122 23 0 8 4 14 9
14 5 0 23 14 39 30 17 17 35 30 40 30 6 0 14 -17 20 -37z m82 -104 c0 -16 -38
-29 -85 -29 -47 0 -85 13 -85 29 0 5 38 9 85 9 47 0 85 -4 85 -9z m-470 -44
c14 -8 38 -14 53 -15 33 0 67 -16 67 -31 0 -7 -10 -8 -27 -3 -32 8 -93 14 -93
8 0 -2 8 -12 18 -21 19 -20 128 -31 117 -13 -3 6 -1 10 4 10 10 0 15 -13 13
-31 -3 -18 87 -104 127 -121 25 -11 41 -22 34 -25 -14 -5 -78 27 -149 73 -57
38 -121 67 -136 62 -6 -2 11 -15 38 -29 189 -97 254 -133 250 -136 -2 -3 -26
5 -53 17 -26 12 -56 23 -67 26 -10 2 -26 10 -35 17 -29 24 -129 76 -135 70 -3
-4 -6 -1 -6 5 0 7 -7 12 -15 12 -15 0 -17 6 -19 65 -2 47 -74 71 -140 46 -30
-12 -174 -26 -165 -17 10 11 190 44 244 45 28 0 61 -6 75 -14z m441 -1 c11 -3
15 -12 11 -29 -4 -23 -8 -25 -67 -25 -59 0 -63 2 -67 25 -3 13 0 26 6 29 14 6
96 6 117 0z m-506 -34 c4 -6 12 -7 18 -3 7 4 7 0 -1 -10 -8 -9 -39 -26 -70
-37 -32 -12 -107 -41 -168 -66 -62 -24 -145 -53 -185 -64 -62 -17 -66 -20 -29
-16 l45 4 -37 -11 c-44 -12 -47 -20 -13 -35 14 -6 25 -16 25 -21 0 -11 -55
-31 -87 -31 -13 0 -22 -4 -19 -9 4 -5 -2 -7 -11 -5 -10 3 -65 -6 -123 -21 -58
-14 -118 -25 -133 -25 -35 0 -75 20 -106 54 l-24 26 29 0 c83 1 217 21 256 37
l43 19 42 -26 c28 -18 51 -26 68 -22 14 2 25 7 25 11 -1 17 -30 41 -51 42 -21
0 -22 1 -5 8 16 6 10 10 -27 20 -47 14 -67 9 -67 -13 0 -16 -239 -42 -298 -33
-34 6 -92 53 -92 75 0 4 48 15 108 24 59 9 117 20 130 23 16 6 22 3 22 -8 0
-18 60 -91 68 -83 2 3 -7 19 -22 36 -14 17 -26 36 -26 41 0 17 35 9 48 -11 14
-24 47 -28 38 -5 -4 12 -2 13 13 6 10 -6 22 -7 26 -3 5 4 5 1 1 -5 -11 -19 1
-17 140 32 71 24 143 48 159 54 17 5 68 15 115 21 151 20 160 22 154 31 -3 5
-1 9 5 9 5 0 13 -5 16 -10z m921 1 c-5 -8 38 -18 114 -27 99 -10 168 -27 303
-74 121 -41 152 -49 164 -39 12 10 16 10 23 -2 13 -19 44 0 48 30 4 25 3 25
47 7 40 -17 44 -35 15 -61 -27 -24 -18 -31 14 -10 22 15 35 15 115 5 56 -7 96
-8 107 -2 11 6 -12 11 -77 16 -80 6 -98 10 -118 30 l-24 24 64 -13 c35 -7 90
-16 122 -20 65 -7 70 -18 30 -57 -39 -37 -84 -42 -237 -28 -105 10 -133 16
-129 26 8 22 -21 26 -73 10 -27 -8 -40 -15 -29 -16 15 -1 14 -4 -8 -10 -20 -6
-43 -3 -80 10 -29 10 -45 19 -37 20 8 0 -32 18 -90 39 -111 41 -253 97 -283
113 -15 7 -16 12 -6 24 12 15 34 20 25 5z m-896 -50 c-10 -37 2 -53 55 -70 22
-8 51 -22 64 -32 13 -11 30 -19 37 -19 8 0 14 -4 14 -10 0 -5 6 -10 13 -10 6
0 32 -10 57 -22 25 -12 56 -25 70 -29 24 -6 24 -7 -4 -8 -16 0 -37 6 -47 15
-10 9 -38 19 -62 21 -43 5 -45 4 -114 -66 l-71 -72 -63 8 -64 9 45 28 c25 16
70 51 101 77 61 53 69 57 69 35 0 -8 5 -18 12 -22 8 -5 9 -2 5 9 -5 14 -2 16
21 11 26 -5 26 -5 8 10 -11 9 -28 16 -39 16 -10 0 -16 4 -13 8 8 13 -49 42
-73 37 -13 -2 -19 0 -15 7 7 11 -16 5 -73 -18 -20 -9 -31 -19 -27 -26 4 -7 3
-8 -4 -4 -6 4 -57 -16 -113 -44 l-101 -51 -69 13 c-38 7 -69 15 -69 19 0 3 28
14 62 24 93 26 293 113 346 151 26 18 48 33 49 33 1 1 -2 -12 -7 -28z m1025
-74 c55 -25 139 -57 188 -73 48 -15 87 -31 87 -34 0 -3 -32 -12 -71 -19 l-71
-13 -137 70 c-139 71 -188 92 -178 75 4 -6 -5 -8 -21 -5 -22 5 -24 7 -7 10 25
5 35 20 35 55 l0 27 38 -24 c20 -14 82 -45 137 -69z m-564 -14 c2 -139 -2
-364 -7 -388 -12 -57 -12 -85 1 -101 7 -11 10 -27 6 -39 -4 -11 -8 -65 -10
-120 -2 -89 -5 -102 -24 -118 -12 -10 -15 -16 -7 -12 8 4 6 -1 -4 -9 -11 -9
-25 -16 -30 -16 -6 0 -5 4 3 9 11 7 13 37 9 152 -3 88 -1 153 5 167 8 16 7 33
-1 55 -10 31 -17 216 -13 420 l1 97 35 0 35 0 1 -97z m312 -2 c-12 -10 -19
-21 -16 -25 4 -3 -3 -6 -13 -6 -11 0 -29 -7 -40 -16 -19 -15 -19 -15 1 -11 11
3 27 8 36 11 11 5 36 -9 75 -42 33 -27 79 -62 104 -78 l45 -28 -55 -8 c-73
-10 -90 -5 -120 37 -33 47 -107 104 -128 100 -31 -6 -70 -24 -77 -34 -3 -6
-11 -11 -16 -11 -25 0 9 24 79 57 43 20 88 44 101 54 31 25 53 24 24 0z m-709
-19 c5 -3 -9 -14 -30 -25 -21 -11 -55 -32 -74 -47 -72 -55 -129 -81 -168 -78
-20 2 -37 8 -36 13 0 6 54 43 120 83 101 61 123 72 149 66 16 -3 34 -9 39 -12z
m921 -61 c63 -40 113 -77 110 -82 -4 -5 -23 -9 -43 -9 -38 0 -143 54 -203 104
-16 14 -38 27 -49 31 -42 13 -10 34 47 29 12 0 74 -34 138 -73z m-1100 41
c-21 -18 -141 -89 -160 -95 -52 -14 -75 -17 -75 -9 0 5 17 12 39 15 21 2 74
25 117 51 77 45 98 55 79 38z m1305 -88 c42 5 43 5 20 -7 -33 -18 -86 -6 -150
34 -71 44 -62 46 18 3 58 -31 73 -35 112 -30z m-1205 21 c-21 -18 -62 -45 -89
-59 -28 -14 -44 -26 -36 -26 7 0 11 -2 9 -5 -3 -2 -18 0 -35 4 -16 5 -21 10
-11 10 24 1 103 43 152 79 54 41 59 39 10 -3z m200 -5 c3 -11 3 -25 -1 -31 -5
-8 -3 -9 5 -4 7 4 10 16 8 27 -5 17 -2 18 26 12 17 -3 37 -13 45 -20 21 -21
52 -36 52 -25 0 5 -6 12 -12 14 -8 4 -7 6 4 6 39 2 48 -10 48 -65 l0 -54 -65
0 c-78 0 -86 10 -56 69 24 46 25 51 11 51 -5 0 -23 -19 -40 -42 -16 -24 -34
-49 -40 -55 -13 -15 -86 -17 -95 -3 -7 11 80 140 95 140 5 0 11 -9 15 -20z
m550 -45 c25 -36 43 -70 40 -75 -9 -14 -78 -12 -96 3 -8 6 -27 31 -42 55 -15
23 -32 42 -37 42 -13 0 -13 0 11 -54 11 -25 17 -51 14 -56 -3 -6 -35 -10 -70
-10 l-63 0 -4 58 -3 57 50 3 c27 2 52 7 55 11 5 7 65 28 87 30 6 1 32 -28 58
-64z m220 3 c28 -15 61 -28 75 -29 20 -1 18 -3 -10 -9 -19 -5 -37 -7 -39 -4
-2 2 2 4 9 4 8 0 -9 12 -37 26 -28 15 -64 38 -79 51 l-29 25 30 -18 c17 -10
53 -31 80 -46z m793 45 c-15 -2 -42 -2 -60 0 -18 2 -6 4 27 4 33 0 48 -2 33
-4z m-2124 -58 c31 -5 46 -4 46 4 0 6 5 11 10 11 24 0 6 -22 -32 -40 -106 -48
-304 -120 -333 -120 -37 0 -86 33 -70 48 6 5 45 19 89 31 43 12 111 35 150 51
39 16 76 27 82 25 6 -2 32 -7 58 -10z m1556 4 c0 -7 16 -9 51 -4 45 6 52 5 66
-15 9 -12 31 -28 49 -36 45 -19 56 -17 19 3 -35 18 -65 43 -65 53 0 4 28 -4
63 -18 34 -14 103 -38 152 -53 55 -16 90 -32 90 -40 0 -18 -43 -39 -78 -39
-26 0 -272 91 -339 126 -46 24 -60 6 -31 -39 13 -21 28 -35 34 -31 7 4 0 18
-17 35 -40 42 -18 36 61 -17 39 -26 108 -64 154 -86 95 -44 97 -58 7 -66 -50
-4 -60 -1 -143 45 -48 28 -121 67 -160 87 -40 20 -73 41 -73 46 0 13 13 13 27
-1 17 -17 56 -1 50 22 -4 15 0 19 23 19 16 0 32 5 35 10 8 13 25 13 25 -1z
m-1427 -28 c-6 -23 33 -39 50 -22 14 14 27 14 27 1 0 -5 -37 -27 -82 -49 -46
-23 -119 -61 -163 -86 -72 -42 -85 -46 -133 -42 -86 6 -86 21 1 61 42 19 107
55 145 79 38 25 79 48 91 52 12 3 19 11 16 16 -4 5 7 9 23 9 25 0 29 -3 25
-19z m165 -27 c12 -4 22 -10 22 -14 0 -10 -222 -179 -276 -210 -31 -18 -48
-21 -77 -16 -20 4 -37 11 -37 15 0 4 33 30 73 56 39 26 93 65 118 87 26 21 64
45 85 54 28 12 34 18 23 25 -17 10 32 12 69 3z m1085 -1 c-16 -6 45 -83 85
-108 17 -11 9 1 -23 35 -57 59 -33 53 49 -14 28 -22 82 -61 119 -85 37 -24 67
-47 67 -52 0 -13 -47 -22 -81 -15 -34 7 -111 58 -224 150 -44 36 -89 66 -100
66 -34 2 46 28 85 28 19 0 29 -2 23 -5z m-974 -22 c21 -14 -19 -68 -133 -179
-82 -81 -97 -92 -129 -92 -20 0 -38 4 -41 9 -7 11 219 241 238 241 8 0 22 3
32 7 16 6 16 7 -2 14 -18 7 -18 8 1 8 11 0 26 -3 34 -8z m823 2 c-19 -7 -4
-23 24 -23 18 0 55 -31 139 -116 63 -64 112 -121 109 -125 -8 -14 -62 -11 -93
6 -32 16 -152 142 -195 204 -25 35 -27 44 -15 52 8 5 21 8 29 8 10 0 11 -2 2
-6z m-774 -25 c-2 -9 13 -14 46 -16 43 -3 48 -1 37 11 -10 13 -6 15 31 11 122
-13 133 -16 115 -25 -27 -15 -20 -30 8 -17 13 6 22 15 19 19 -3 5 3 9 13 9 17
0 19 -7 15 -67 -2 -38 -5 -69 -7 -71 -1 -2 -19 5 -39 15 -33 15 -36 20 -31 48
5 22 4 26 -4 15 -6 -8 -11 -23 -11 -32 0 -15 -9 -18 -50 -18 -57 0 -60 7 -30
63 29 53 10 46 -27 -12 -28 -43 -39 -50 -84 -61 -61 -15 -109 -54 -134 -110
-13 -29 -24 -40 -40 -40 -12 0 -24 3 -28 6 -3 4 18 36 47 73 30 36 64 86 76
111 12 25 29 53 38 63 8 9 12 17 8 17 -4 0 -4 5 -1 10 9 14 35 12 33 -2z m610
0 c-2 -9 13 -14 45 -16 44 -3 47 -5 47 -31 0 -16 7 -34 15 -41 21 -18 20 4 -5
58 -15 33 -16 42 -5 42 7 0 31 -34 52 -76 21 -42 61 -104 90 -139 28 -35 49
-66 46 -69 -18 -18 -43 -2 -63 39 -27 56 -70 92 -118 100 -58 10 -83 26 -111
73 -33 53 -48 55 -21 2 11 -21 20 -44 20 -50 0 -5 -22 -10 -50 -10 -41 0 -50
3 -50 18 0 9 -5 24 -11 32 -8 11 -9 7 -4 -17 6 -30 4 -34 -29 -50 -20 -9 -37
-15 -40 -12 -2 2 -6 34 -9 72 -4 61 -3 67 15 67 10 0 17 -4 14 -9 -3 -4 6 -13
20 -19 23 -11 24 -10 14 8 -9 17 -6 20 22 24 18 3 51 7 73 9 22 2 41 4 43 5 1
1 1 -4 0 -10z m127 -159 c37 -18 55 -36 77 -75 16 -29 26 -58 22 -68 -10 -26
-20 -19 -38 28 -17 44 -84 116 -109 116 -6 0 2 -10 20 -21 29 -18 73 -75 73
-93 0 -4 -9 -5 -19 -1 -11 3 -22 1 -26 -5 -3 -5 1 -10 9 -10 11 0 16 -10 16
-32 0 -29 1 -30 13 -13 18 24 26 8 16 -31 -23 -82 -139 -165 -284 -204 -44
-12 -107 -30 -140 -40 -33 -10 -82 -24 -109 -32 -31 -8 -68 -29 -100 -58 -28
-24 -48 -40 -44 -35 4 4 3 14 -3 21 -12 15 6 58 20 49 9 -5 45 42 46 59 0 5 9
10 20 12 11 1 48 14 82 28 35 15 93 34 130 42 167 39 260 83 304 146 32 44 15
45 -24 1 -43 -47 -105 -79 -209 -109 l-78 -22 0 120 c0 111 1 120 18 113 9 -4
44 -11 77 -15 33 -5 77 -13 97 -18 20 -5 57 -7 82 -5 32 4 46 2 46 -6 0 -7 5
-9 11 -5 6 4 7 9 2 13 -17 11 -63 78 -58 83 7 7 -18 4 -68 -6 -42 -9 -33 -26
13 -26 15 0 31 -9 39 -21 13 -22 12 -22 -35 -15 -27 3 -52 12 -56 19 -18 30
-26 34 -70 40 -38 5 -48 4 -48 -8 0 -9 14 -17 40 -21 23 -4 38 -9 36 -12 -3
-2 -26 -1 -52 3 -41 6 -46 9 -42 30 4 16 1 22 -9 18 -7 -3 -13 0 -13 6 0 6 7
12 15 12 54 5 74 9 108 20 20 8 37 17 37 21 0 11 -7 10 -38 -6 -15 -7 -45 -16
-67 -19 -22 -3 -47 -8 -56 -12 -10 -4 -19 0 -23 10 -4 11 3 19 22 25 15 6 38
17 52 25 41 26 213 15 275 -16z m-477 -105 c-3 -2 -27 -6 -54 -9 l-49 -5 40
10 c22 6 44 18 49 28 10 16 11 16 14 -1 2 -10 2 -20 0 -23z m-350 -118 c15
-41 98 -121 150 -144 35 -16 36 -18 20 -34 -16 -16 -19 -15 -55 9 -82 55 -143
129 -143 175 0 38 13 35 28 -6z m438 -347 c4 -8 9 -7 15 2 12 19 11 -138 -1
-160 -14 -28 -54 -22 -58 9 -2 20 -1 22 7 10 8 -11 11 8 11 68 0 75 8 99 26
71z m-66 -178 c0 -28 -30 -13 -43 22 -6 16 -5 16 18 1 14 -9 25 -20 25 -23z
m45 -21 c-3 -5 2 -10 12 -10 13 -1 10 -5 -10 -16 -16 -9 -31 -13 -34 -11 -7 8
16 47 28 47 6 0 7 -4 4 -10z m173 -155 c0 -14 -2 -15 -5 -4 -2 9 -15 21 -28
27 -30 14 -34 36 -5 27 13 -4 20 -2 21 7 1 19 17 -33 17 -57z m48 -133 c-8
-16 -27 -44 -42 -61 -33 -39 -108 -81 -88 -50 4 8 -1 9 -17 4 -18 -5 -21 -4
-9 4 8 6 22 8 31 6 19 -6 112 88 124 126 5 13 10 19 12 12 2 -6 -3 -25 -11
-41z m-169 -410 c-55 -56 -67 -73 -68 -102 -1 -33 -2 -33 -8 -8 -4 21 -10 25
-20 19 -12 -8 -12 -13 3 -36 10 -15 15 -29 12 -32 -6 -6 -46 57 -46 72 0 6 4
16 9 23 11 18 175 141 180 136 3 -3 -25 -35 -62 -72z m0 -103 l-14 -34 2 40
c2 22 7 49 11 60 8 18 9 18 12 -6 2 -15 -3 -42 -11 -60z m-18 -128 c-26 -33
-33 -53 -37 -98 -5 -53 -4 -57 12 -44 13 11 14 16 4 23 -10 6 -7 10 10 14 15
5 22 14 22 32 0 14 2 23 5 20 3 -3 3 -29 -1 -59 -6 -49 -9 -54 -30 -54 -25 0
-28 5 -38 66 -8 46 6 84 46 120 43 41 47 29 7 -20z"/>
<path d="M2245 2464 c53 -25 184 -68 191 -62 2 2 -22 13 -54 23 -31 10 -81 29
-111 42 -70 30 -90 28 -26 -3z"/>
<path d="M1970 2147 c0 -15 29 -64 46 -78 14 -11 13 -5 -6 26 -26 45 -40 63
-40 52z"/>
<path d="M1635 2006 c-18 -13 -18 -14 3 -20 23 -8 68 15 55 27 -11 11 -38 8
-58 -7z"/>
<path d="M1800 1980 c0 -5 -18 -10 -41 -10 -26 0 -38 -4 -33 -11 4 -7 21 -8
43 -5 28 5 33 4 21 -4 -13 -10 -13 -11 0 -7 8 2 14 10 13 16 -2 6 2 11 7 11 6
0 10 5 10 10 0 6 -4 10 -10 10 -5 0 -10 -4 -10 -10z"/>
<path d="M2045 2654 c34 -13 179 -53 183 -50 5 6 -159 56 -179 55 -7 0 -9 -2
-4 -5z"/>
<path d="M2291 2568 c28 -22 124 -68 142 -68 7 1 -16 14 -50 30 -35 16 -63 33
-63 38 0 5 -12 12 -27 15 l-27 5 25 -20z"/>
<path d="M1326 2011 c-4 -5 4 -7 16 -3 14 3 19 2 14 -6 -5 -8 2 -12 19 -12 15
0 24 4 20 10 -4 6 -10 8 -15 5 -5 -3 -11 -1 -15 5 -8 12 -32 13 -39 1z"/>
<path d="M1602 1488 c-2 -32 1 -38 18 -38 11 0 20 4 20 10 0 5 -6 7 -14 4 -11
-4 -16 4 -19 28 l-4 33 -1 -37z"/>
<path d="M1617 804 c-3 -3 -4 -11 -3 -17 2 -7 1 -9 -2 -4 -2 4 -37 -11 -78
-33 -41 -22 -80 -37 -87 -34 -7 4 -9 3 -4 -1 4 -5 0 -17 -9 -26 -15 -17 -15
-21 2 -46 18 -27 20 -32 23 -53 0 -6 12 -3 26 6 14 9 22 21 18 27 -3 6 -1 7 5
3 12 -7 90 59 123 105 25 36 13 100 -14 73z m-48 -115 c-14 -28 -19 -23 -19
19 1 34 2 36 15 18 10 -13 11 -24 4 -37z m-48 -26 c-12 -24 -51 -27 -67 -5
-18 23 -17 29 6 35 17 4 20 2 15 -16 -6 -21 -6 -21 7 -2 12 19 12 19 18 -5 6
-22 8 -19 15 20 8 37 10 40 13 18 2 -15 -1 -35 -7 -45z"/>
</g>
</svg>
